<svg width="119" height="63" viewBox="0 0 119 63" fill="none" xmlns="http://www.w3.org/2000/svg">
<path d="M20.6896 0C21.3326 0.205575 22.0018 0.166209 22.6623 0.314923C30.3079 2.0645 35.5698 6.40781 37.7392 14.1016C38.614 17.124 38.2379 20.1551 37.4418 23.1469C36.7568 25.7939 35.7398 28.3437 34.4151 30.7356C33.649 32.1575 33.0963 33.6843 32.7748 35.267C32.3194 37.1475 31.9978 39.0578 31.8126 40.9838C31.7819 41.3949 31.5632 41.3599 31.2921 41.3599H19.2769C15.2179 41.3599 11.1588 41.3599 7.10421 41.3599C6.70618 41.3599 6.62745 41.2549 6.60996 40.87C6.55082 38.2752 6.01561 35.7133 5.03097 33.3119C4.47985 32.0391 3.68817 30.8712 3.10206 29.6072C1.71445 26.7357 0.755115 23.6765 0.25463 20.5269C0.167151 19.9233 0.149656 19.3109 0.101542 18.7029C0.0578333 18.1822 0.044689 17.6593 0.062177 17.1371C0.062177 12.855 1.70678 9.26399 4.60669 6.20224C7.53596 3.12465 11.3524 1.03756 15.524 0.231818C16.2282 0.0874787 16.9456 0.131218 17.6454 0H18.0828C18.3922 0.083185 18.7181 0.083185 19.0276 0L19.3425 0C19.6519 0.083185 19.9778 0.083185 20.2872 0L20.6896 0Z" fill="#8C20BA"/>
<path d="M0 17.0146C0.00531974 17.0089 0.0117533 17.0044 0.0189014 17.0013C0.0260494 16.9982 0.0337593 16.9966 0.0415524 16.9966C0.0493454 16.9966 0.0570553 16.9982 0.0642034 17.0013C0.0713514 17.0044 0.077785 17.0089 0.0831047 17.0146V18.7117H0.0524872H0.00874787L0 17.0146Z" fill="#8C20BA"/>
<path d="M19.0092 0C18.8656 0.0829209 18.7027 0.126575 18.5368 0.126575C18.371 0.126575 18.2081 0.0829209 18.0645 0L19.0092 0Z" fill="#8C20BA"/>
<path d="M20.269 0C20.1249 0.0816571 19.9622 0.12458 19.7966 0.12458C19.631 0.12458 19.4683 0.0816571 19.3242 0L20.269 0Z" fill="#8C20BA"/>
<path d="M95.2215 33.7799V34.3266C95.2215 39.7503 95.2215 45.1725 95.2215 50.5933C95.2215 51.0307 95.1209 51.1575 94.6835 51.1357C93.8612 51.0963 93.0389 51.105 92.2166 51.1357C91.858 51.1357 91.7399 51.0613 91.7443 50.6983C91.7705 49.5261 91.7443 48.3538 91.7443 47.1991C91.7443 40.5507 91.7443 33.9024 91.7443 27.254C91.7443 26.8166 91.8405 26.6941 92.2822 26.7072C93.5419 26.7379 94.8016 26.7335 96.0613 26.7072C96.4156 26.7072 96.5775 26.7903 96.6693 27.1446C97.8357 31.5711 99.0021 35.9946 100.168 40.4152C100.201 40.5608 100.272 40.6951 100.374 40.8044V40.2402C100.374 35.8663 100.374 31.5273 100.374 27.1709C100.374 26.7641 100.47 26.6329 100.89 26.6504C101.694 26.6963 102.5 26.6963 103.305 26.6504C103.808 26.6198 103.851 26.8122 103.851 27.2365C103.851 32.3103 103.851 37.384 103.851 42.4578C103.851 45.1696 103.851 47.8815 103.851 50.5933C103.851 51.0307 103.72 51.1357 103.3 51.1225C102.338 51.0875 101.376 51.0875 100.413 51.1225C100.015 51.1225 99.8841 50.9913 99.7879 50.6283C98.3474 45.1784 96.9011 39.7314 95.449 34.2873C95.4009 34.1079 95.3484 33.933 95.2959 33.7536L95.2215 33.7799Z" fill="#8C20BA"/>
<path d="M86.6259 38.6656C88.2049 39.2561 88.7472 40.4808 89.0184 41.8936C89.1207 42.5666 89.1704 43.2467 89.1671 43.9274C89.259 46.2544 88.8872 48.6119 89.5302 50.9257C89.5783 51.0876 89.5302 51.1401 89.3508 51.1401H85.8517C85.598 51.1401 85.6024 50.952 85.5586 50.7858C85.3648 49.9531 85.2766 49.0993 85.2962 48.2445C85.2612 46.46 85.2962 44.6754 85.2612 42.8908C85.2393 41.7405 84.7932 41.0975 83.914 40.8263C83.2306 40.6779 82.5294 40.6293 81.832 40.682C81.6789 40.682 81.6177 40.7651 81.6177 40.9138C81.6177 41.0625 81.6177 41.1587 81.6177 41.2812C81.6177 44.378 81.6177 47.4703 81.6177 50.5671C81.6177 51.0657 81.469 51.1663 81.0097 51.1532C80.0475 51.1182 79.0852 51.1269 78.1229 51.1532C77.8036 51.1532 77.6855 51.0657 77.6855 50.742C77.6855 42.869 77.6855 34.9827 77.6855 27.0834C77.6855 26.8472 77.6855 26.6898 78.0136 26.6941C80.2006 26.7466 82.3525 26.576 84.5133 26.7904C87.3738 27.0703 88.8041 28.4918 89.0621 31.3743C89.2195 32.7224 89.2018 34.0853 89.0097 35.4289C88.7647 36.8592 88.113 38.027 86.6259 38.6656Z" fill="#8C20BA"/>
<path d="M62.793 51.1225C63.2304 48.4107 63.6678 45.747 64.1051 43.0833C64.5775 40.1673 65.0485 37.2601 65.5179 34.3616C65.9116 31.9355 66.3038 29.508 66.6945 27.079C66.7426 26.7772 66.8695 26.6635 67.1975 26.6679C68.6555 26.6941 70.1135 26.6941 71.5715 26.6679C71.9345 26.6679 72.0526 26.786 72.1051 27.1053C72.4594 29.3447 72.8268 31.5798 73.1898 33.8193L74.607 42.5409C75.0444 45.2746 75.4818 48.0127 75.941 50.7464C75.9979 51.0701 75.941 51.1269 75.6261 51.1225C74.5763 51.1225 73.5266 51.1225 72.4769 51.1225C72.1794 51.1225 72.0832 51.0176 72.0395 50.7464C71.8689 49.3948 71.6808 48.0477 71.5102 46.6961C71.4752 46.4118 71.3659 46.3156 71.0728 46.32C69.8656 46.32 68.6584 46.32 67.4512 46.32C67.11 46.32 67.0138 46.4687 67.0138 46.7574C66.8345 48.0695 66.6508 49.4211 66.4714 50.7508C66.4452 50.9345 66.4977 51.1444 66.1871 51.1444C65.0543 51.1182 63.9389 51.1225 62.793 51.1225Z" fill="#8C20BA"/>
<path d="M51.2051 38.8493C51.2051 34.9652 51.2051 31.0812 51.2051 27.1971C51.2051 26.8078 51.2707 26.6635 51.7081 26.6679C54.8748 26.6912 58.0415 26.6912 61.2083 26.6679C61.6457 26.6679 61.7419 26.7816 61.7244 27.1928C61.6938 28.0282 61.6894 28.8723 61.7244 29.7078C61.7463 30.1452 61.5844 30.2501 61.1645 30.2414C59.2925 30.2414 57.4204 30.2414 55.5484 30.2414C55.181 30.2414 55.111 30.3332 55.111 30.7006C55.1285 32.5552 55.1285 34.4097 55.111 36.2643C55.111 36.5836 55.1854 36.6754 55.5134 36.6711C56.983 36.6711 58.4527 36.6711 59.9223 36.6711C60.2635 36.6711 60.4122 36.7192 60.3991 37.1085C60.3641 37.9832 60.3685 38.823 60.3991 39.6803C60.3991 40.0609 60.3291 40.1877 59.9223 40.1833C58.4702 40.1527 57.018 40.1833 55.5484 40.1833C55.2203 40.1833 55.111 40.2446 55.111 40.6207C55.1285 42.8252 55.1285 45.0297 55.111 47.2341C55.111 47.5622 55.1941 47.6409 55.5178 47.6365C57.4248 47.6365 59.3318 47.6365 61.2389 47.6365C61.615 47.6365 61.7594 47.7021 61.7419 48.1177C61.7113 49.0231 61.7419 49.9372 61.7419 50.847C61.7419 51.1182 61.6588 51.2057 61.3832 51.2013C58.1115 51.2013 54.8223 51.2013 51.5725 51.2013C51.1351 51.2013 51.2357 50.9563 51.2357 50.7245L51.2051 38.8493Z" fill="#8C20BA"/>
<path d="M112.284 35.5163C113.102 32.717 113.929 29.9308 114.716 27.1359C114.83 26.7466 114.992 26.6635 115.359 26.6722C116.426 26.6941 117.494 26.6722 118.631 26.6722C118.434 27.2933 118.255 27.8795 118.062 28.4612C116.75 32.4181 115.438 36.3766 114.126 40.3364C114.044 40.5847 114.006 40.845 114.012 41.1062C114.012 44.273 114.012 47.4397 114.012 50.6064C114.012 51.0088 113.924 51.14 113.5 51.1269C112.555 51.0919 111.611 51.0788 110.666 51.1269C110.167 51.1532 110.115 50.9651 110.119 50.5408C110.119 47.4266 110.119 44.3123 110.119 41.1981C110.121 40.9011 110.075 40.6058 109.983 40.3233C108.526 35.9494 107.068 31.5623 105.61 27.1621C105.47 26.7247 105.531 26.6416 105.981 26.6504C107.044 26.681 108.116 26.6722 109.179 26.6504C109.498 26.6504 109.616 26.7335 109.712 27.0528C110.495 29.7952 111.304 32.5289 112.105 35.2627C112.135 35.3633 112.122 35.4639 112.284 35.5163Z" fill="#8C20BA"/>
<path d="M19.3803 46.6174C23.1244 46.6174 26.8641 46.6174 30.6039 46.6174C31.0106 46.6174 31.1375 46.7049 31.0762 47.1204C30.875 48.5157 30.7001 49.9197 30.5251 51.3194C30.4858 51.643 30.3808 51.7568 30.009 51.7568C22.8095 51.7393 15.6071 51.7393 8.40176 51.7568C8.06934 51.7568 7.96437 51.6737 7.93375 51.3194C7.82878 49.841 7.70631 48.3626 7.57509 46.8886C7.55322 46.6174 7.65819 46.5649 7.89876 46.5649L17.8101 46.5999L19.3803 46.6174Z" fill="#8C20BA"/>
<path d="M39.2383 38.928C39.2383 35.0265 39.2383 31.1249 39.2383 27.2277C39.2383 26.7903 39.3389 26.6635 39.7806 26.681C40.7254 26.716 41.6702 26.716 42.615 26.681C43.0524 26.681 43.1486 26.821 43.1486 27.2409C43.1486 33.7289 43.1486 40.2169 43.1486 46.7049C43.1486 47.5797 43.1486 47.5797 44.0234 47.5797C45.6855 47.5797 47.3476 47.5797 49.0097 47.5797C49.3858 47.5797 49.4777 47.689 49.447 48.052C49.4208 48.9268 49.447 49.8322 49.447 50.7245C49.447 51.0351 49.3858 51.1619 49.049 51.1619C45.9173 51.1619 42.7855 51.1619 39.6538 51.1619C39.1945 51.1619 39.2514 50.9213 39.2514 50.6414C39.2427 46.7224 39.2383 42.8179 39.2383 38.928Z" fill="#8C20BA"/>
<path d="M19.2721 56.6643C22.4914 56.6643 25.7106 56.6643 28.9298 56.6643C29.4415 56.6643 29.4678 56.8174 29.2972 57.2242C28.5186 59.1094 27.0446 60.2422 25.2294 60.9945C23.6854 61.5979 22.0489 61.9309 20.3919 61.9787C18.1259 62.1597 15.8465 61.8952 13.6822 61.2001C11.7271 60.5178 10.0912 59.4155 9.21646 57.4385C8.87967 56.6818 8.89279 56.6775 9.72384 56.6775L19.2721 56.6643Z" fill="#8C20BA"/>
<path d="M23.2167 21.1655C23.2167 24.6996 23.2167 28.2337 23.2167 31.7679C23.2228 32.2595 23.0478 32.7362 22.7252 33.1072C22.4026 33.4782 21.9548 33.7177 21.4671 33.7799C21.0143 33.83 20.5577 33.7283 20.169 33.4908C19.7803 33.2533 19.4815 32.8935 19.3195 32.4677C19.2087 32.1744 19.1552 31.8626 19.162 31.5492C19.162 24.6034 19.162 17.6576 19.162 10.7118C19.126 10.3003 19.2165 9.88757 19.4212 9.52883C19.626 9.17009 19.9354 8.88237 20.308 8.70412C20.6486 8.52269 21.0355 8.44661 21.4194 8.48555C21.8034 8.52449 22.1671 8.67669 22.4643 8.92281C22.7201 9.12053 22.9239 9.3776 23.0581 9.67177C23.1922 9.96595 23.2526 10.2884 23.2341 10.6112C23.2167 14.1307 23.2108 17.6488 23.2167 21.1655Z" fill="#FF517C"/>
<path d="M9.44723 31.313C9.56533 30.4076 9.88463 29.4103 10.1077 28.3999C11.2755 23.4793 12.4696 18.5673 13.655 13.651C13.7107 13.3856 13.819 13.1339 13.9736 12.911C14.1283 12.6881 14.326 12.4985 14.5552 12.3533C14.7843 12.2082 15.0403 12.1104 15.3079 12.0659C15.5755 12.0213 15.8493 12.0308 16.1131 12.0939C16.3735 12.1491 16.6203 12.2559 16.8388 12.4079C17.0573 12.56 17.2432 12.7542 17.3855 12.9792C17.5277 13.2043 17.6235 13.4555 17.6672 13.7181C17.7108 13.9807 17.7014 14.2494 17.6396 14.5083C17.0273 17.2245 16.3668 19.9364 15.7195 22.6482C14.9992 25.6779 14.2702 28.709 13.5325 31.7416C13.4517 32.2072 13.2175 32.6323 12.8672 32.9494C12.5168 33.2664 12.0705 33.4572 11.5992 33.4912C11.1357 33.5137 10.6779 33.3803 10.299 33.1124C9.92008 32.8444 9.64178 32.4574 9.50847 32.0128C9.45916 31.783 9.43859 31.5479 9.44723 31.313Z" fill="#FF517C"/>
<path d="M28.8683 22.5783C28.8683 25.5175 28.8333 28.4568 28.8683 31.3917C28.8824 31.9409 28.6779 32.4732 28.2999 32.8718C27.9218 33.2704 27.401 33.5026 26.8519 33.5175C26.5728 33.523 26.2956 33.4715 26.0371 33.3662C25.7786 33.2609 25.5443 33.104 25.3486 32.905C25.1529 32.706 24.9998 32.4691 24.8988 32.2089C24.7978 31.9487 24.751 31.6707 24.7611 31.3917C24.7611 25.4957 24.7611 19.6011 24.7611 13.7079C24.7494 13.2119 24.9171 12.7283 25.2333 12.346C25.5496 11.9637 25.9933 11.7083 26.4827 11.6269C26.9722 11.5455 27.4746 11.6435 27.8975 11.9029C28.3205 12.1623 28.6357 12.5656 28.7851 13.0387C28.8564 13.2917 28.8845 13.5549 28.8683 13.8173C28.8683 16.7361 28.8683 19.6565 28.8683 22.5783Z" fill="#FF517C"/>
<path d="M81.6035 33.6793C81.6035 32.6645 81.6035 31.6498 81.6035 30.6394C81.6035 30.3114 81.691 30.202 82.0147 30.2326C82.3383 30.2632 82.7845 30.2326 83.1694 30.2326C84.3985 30.2326 84.9846 30.67 85.1726 31.8904C85.3585 33.064 85.3585 34.2596 85.1726 35.4332C84.9889 36.588 84.3853 37.0735 83.2131 37.1347C82.7757 37.1347 82.3733 37.1347 81.9534 37.1347C81.6604 37.1347 81.6123 37.0122 81.6123 36.7585C81.6079 35.735 81.6035 34.7072 81.6035 33.6793Z" fill="white"/>
<path d="M69.2439 31.0156C69.5501 33.2025 69.8475 35.2277 70.1187 37.2747C70.3636 39.0243 70.5998 40.7738 70.8622 42.554C70.9191 42.9083 70.8229 42.9914 70.4817 42.9914C69.6594 42.9652 68.8371 42.9608 68.0192 42.9914C67.6386 42.9914 67.538 42.8908 67.5818 42.5278C67.8092 40.975 68.0192 39.4223 68.2335 37.8695L69.152 31.348L69.2439 31.0156Z" fill="white"/>
</svg>
